<svg xmlns="http://www.w3.org/2000/svg" xmlns:xlink="http://www.w3.org/1999/xlink" width="180" zoomAndPan="magnify" viewBox="0 0 135 38.249999" height="51" preserveAspectRatio="xMidYMid meet" version="1.0"><defs><g/><clipPath id="b732e89c1b"><path d="M 14 3.75 L 24.175781 3.75 L 24.175781 24 L 14 24 Z M 14 3.75 " clip-rule="nonzero"/></clipPath><clipPath id="a12bc503e7"><path d="M 7.992188 7 L 17 7 L 17 28.027344 L 7.992188 28.027344 Z M 7.992188 7 " clip-rule="nonzero"/></clipPath></defs><g fill="#000000" fill-opacity="1"><g transform="translate(29.120126, 22.067306)"><g><path d="M 4.546875 -9.34375 C 4.265625 -9.34375 4.023438 -9.253906 3.828125 -9.078125 C 3.628906 -8.898438 3.53125 -8.6875 3.53125 -8.4375 C 3.53125 -8.113281 3.664062 -7.851562 3.9375 -7.65625 C 4.207031 -7.457031 4.703125 -7.203125 5.421875 -6.890625 C 6.273438 -6.523438 6.929688 -6.164062 7.390625 -5.8125 C 7.847656 -5.46875 8.164062 -5.101562 8.34375 -4.71875 C 8.53125 -4.332031 8.625 -3.875 8.625 -3.34375 C 8.625 -2.21875 8.265625 -1.34375 7.546875 -0.71875 C 6.828125 -0.09375 5.835938 0.21875 4.578125 0.21875 C 3.296875 0.21875 2.273438 -0.109375 1.515625 -0.765625 C 0.765625 -1.421875 0.390625 -2.363281 0.390625 -3.59375 L 0.390625 -3.84375 L 3.34375 -3.84375 C 3.351562 -3.363281 3.46875 -2.976562 3.6875 -2.6875 C 3.90625 -2.40625 4.195312 -2.265625 4.5625 -2.265625 C 4.863281 -2.265625 5.125 -2.367188 5.34375 -2.578125 C 5.5625 -2.796875 5.671875 -3.0625 5.671875 -3.375 C 5.671875 -3.738281 5.492188 -4.035156 5.140625 -4.265625 C 4.796875 -4.503906 4.300781 -4.75 3.65625 -5 C 3.613281 -5.019531 3.5625 -5.035156 3.5 -5.046875 C 3.445312 -5.066406 3.394531 -5.09375 3.34375 -5.125 C 2.382812 -5.507812 1.679688 -5.960938 1.234375 -6.484375 C 0.796875 -7.015625 0.578125 -7.65625 0.578125 -8.40625 C 0.578125 -9.039062 0.757812 -9.617188 1.125 -10.140625 C 1.5 -10.671875 2 -11.082031 2.625 -11.375 C 3.25 -11.675781 3.914062 -11.828125 4.625 -11.828125 C 5.363281 -11.828125 6.050781 -11.664062 6.6875 -11.34375 C 7.3125 -11.019531 7.769531 -10.609375 8.0625 -10.109375 C 8.363281 -9.609375 8.519531 -8.976562 8.53125 -8.21875 L 5.59375 -8.21875 C 5.53125 -8.625 5.414062 -8.910156 5.25 -9.078125 C 5.082031 -9.253906 4.847656 -9.34375 4.546875 -9.34375 Z M 4.546875 -9.34375 "/></g></g></g><g fill="#000000" fill-opacity="1"><g transform="translate(37.795816, 22.067306)"><g><path d="M 6.515625 -0.921875 C 6.328125 -0.515625 6.046875 -0.210938 5.671875 -0.015625 C 5.304688 0.179688 4.835938 0.28125 4.265625 0.28125 C 3.285156 0.28125 2.476562 -0.015625 1.84375 -0.609375 C 1.21875 -1.210938 0.90625 -2.109375 0.90625 -3.296875 L 0.90625 -8.703125 L 3.515625 -8.703125 L 3.515625 -3.828125 C 3.515625 -3.253906 3.625 -2.832031 3.84375 -2.5625 C 4.0625 -2.289062 4.414062 -2.15625 4.90625 -2.15625 C 5.382812 -2.15625 5.753906 -2.304688 6.015625 -2.609375 C 6.273438 -2.910156 6.40625 -3.332031 6.40625 -3.875 L 6.40625 -8.703125 L 9 -8.703125 L 9 0 L 6.546875 0 L 6.546875 -0.921875 Z M 6.515625 -0.921875 "/></g></g></g><g fill="#000000" fill-opacity="1"><g transform="translate(47.4285, 22.067306)"><g><path d="M 3.546875 -11.609375 L 3.546875 -8.015625 C 4.160156 -8.671875 4.988281 -9 6.03125 -9 C 6.789062 -9 7.5 -8.8125 8.15625 -8.4375 C 8.820312 -8.070312 9.351562 -7.539062 9.75 -6.84375 C 10.15625 -6.144531 10.359375 -5.332031 10.359375 -4.40625 C 10.359375 -3.519531 10.175781 -2.71875 9.8125 -2 C 9.445312 -1.28125 8.929688 -0.71875 8.265625 -0.3125 C 7.609375 0.09375 6.84375 0.296875 5.96875 0.296875 C 5.425781 0.296875 4.921875 0.1875 4.453125 -0.03125 C 3.992188 -0.257812 3.664062 -0.554688 3.46875 -0.921875 L 3.4375 -0.921875 L 3.4375 0 L 0.9375 0 L 0.9375 -11.609375 Z M 7.75 -4.359375 C 7.75 -4.742188 7.65625 -5.109375 7.46875 -5.453125 C 7.289062 -5.796875 7.035156 -6.066406 6.703125 -6.265625 C 6.378906 -6.472656 6.007812 -6.578125 5.59375 -6.578125 C 5.195312 -6.578125 4.832031 -6.476562 4.5 -6.28125 C 4.175781 -6.082031 3.921875 -5.8125 3.734375 -5.46875 C 3.546875 -5.132812 3.453125 -4.769531 3.453125 -4.375 C 3.453125 -3.738281 3.648438 -3.207031 4.046875 -2.78125 C 4.453125 -2.351562 4.957031 -2.140625 5.5625 -2.140625 C 5.96875 -2.140625 6.335938 -2.238281 6.671875 -2.4375 C 7.003906 -2.632812 7.265625 -2.898438 7.453125 -3.234375 C 7.648438 -3.578125 7.75 -3.953125 7.75 -4.359375 Z M 7.75 -4.359375 "/></g></g></g><g fill="#000000" fill-opacity="1"><g transform="translate(57.986816, 22.067306)"><g><path d="M 10.375 -6.5625 C 9.40625 -6.5625 8.921875 -5.976562 8.921875 -4.8125 L 8.921875 0 L 6.328125 0 L 6.328125 -4.796875 C 6.328125 -5.972656 5.890625 -6.5625 5.015625 -6.5625 C 4.035156 -6.5625 3.546875 -5.9375 3.546875 -4.6875 L 3.546875 0 L 0.9375 0 L 0.9375 -8.703125 L 3.375 -8.703125 L 3.375 -7.78125 L 3.40625 -7.78125 C 3.863281 -8.59375 4.660156 -9 5.796875 -9 C 6.898438 -9 7.738281 -8.484375 8.3125 -7.453125 C 8.625 -7.953125 9.015625 -8.332031 9.484375 -8.59375 C 9.960938 -8.863281 10.492188 -9 11.078125 -9 C 12.078125 -9 12.863281 -8.691406 13.4375 -8.078125 C 14.019531 -7.460938 14.3125 -6.5625 14.3125 -5.375 L 14.3125 0 L 11.703125 0 L 11.703125 -4.6875 C 11.703125 -5.351562 11.59375 -5.832031 11.375 -6.125 C 11.164062 -6.414062 10.832031 -6.5625 10.375 -6.5625 Z M 10.375 -6.5625 "/></g></g></g><g fill="#000000" fill-opacity="1"><g transform="translate(72.875165, 22.067306)"><g><path d="M 3.546875 -11.609375 L 3.546875 -9.625 L 0.9375 -9.625 L 0.9375 -11.609375 Z M 3.546875 -8.703125 L 3.546875 0 L 0.9375 0 L 0.9375 -8.703125 Z M 3.546875 -8.703125 "/></g></g></g><g fill="#000000" fill-opacity="1"><g transform="translate(77.048242, 22.067306)"><g><path d="M 0.171875 -6.734375 L 0.171875 -8.703125 L 1.453125 -8.703125 L 1.453125 -11.609375 L 4.0625 -11.609375 L 4.0625 -8.703125 L 5.3125 -8.703125 L 5.3125 -6.734375 L 4.0625 -6.734375 L 4.0625 0 L 1.453125 0 L 1.453125 -6.734375 Z M 0.171875 -6.734375 "/></g></g></g><g fill="#000000" fill-opacity="1"><g transform="translate(82.242569, 22.067306)"><g><path d="M 6.96875 -11.609375 L 6.96875 -10.5625 L 2.265625 -10.5625 L 2.265625 -6.359375 L 6.796875 -6.359375 L 6.796875 -5.296875 L 2.265625 -5.296875 L 2.265625 0 L 1.09375 0 L 1.09375 -11.609375 Z M 6.96875 -11.609375 "/></g></g></g><g fill="#000000" fill-opacity="1"><g transform="translate(89.53766, 22.067306)"><g><path d="M 8.609375 -1.5 C 8.253906 -0.96875 7.785156 -0.550781 7.203125 -0.25 C 6.617188 0.0507812 5.972656 0.203125 5.265625 0.203125 C 4.421875 0.203125 3.644531 0.00390625 2.9375 -0.390625 C 2.226562 -0.785156 1.671875 -1.328125 1.265625 -2.015625 C 0.859375 -2.703125 0.65625 -3.46875 0.65625 -4.3125 C 0.65625 -5.144531 0.863281 -5.90625 1.28125 -6.59375 C 1.695312 -7.28125 2.257812 -7.816406 2.96875 -8.203125 C 3.675781 -8.597656 4.441406 -8.796875 5.265625 -8.796875 C 5.984375 -8.796875 6.632812 -8.644531 7.21875 -8.34375 C 7.800781 -8.039062 8.265625 -7.617188 8.609375 -7.078125 L 8.640625 -7.078125 L 8.640625 -8.578125 L 9.734375 -8.578125 L 9.734375 0 L 8.640625 0 L 8.640625 -1.5 Z M 8.703125 -4.28125 C 8.703125 -4.90625 8.550781 -5.488281 8.25 -6.03125 C 7.945312 -6.582031 7.53125 -7.015625 7 -7.328125 C 6.476562 -7.648438 5.894531 -7.8125 5.25 -7.8125 C 4.601562 -7.8125 4.015625 -7.65625 3.484375 -7.34375 C 2.953125 -7.039062 2.53125 -6.617188 2.21875 -6.078125 C 1.90625 -5.535156 1.75 -4.929688 1.75 -4.265625 C 1.75 -3.617188 1.898438 -3.023438 2.203125 -2.484375 C 2.515625 -1.953125 2.9375 -1.535156 3.46875 -1.234375 C 4.007812 -0.929688 4.609375 -0.78125 5.265625 -0.78125 C 5.898438 -0.78125 6.476562 -0.9375 7 -1.25 C 7.519531 -1.5625 7.929688 -1.984375 8.234375 -2.515625 C 8.546875 -3.054688 8.703125 -3.644531 8.703125 -4.28125 Z M 8.703125 -4.28125 "/></g></g></g><g fill="#000000" fill-opacity="1"><g transform="translate(99.939087, 22.067306)"><g><path d="M 3.03125 -7.8125 C 2.664062 -7.8125 2.351562 -7.6875 2.09375 -7.4375 C 1.84375 -7.195312 1.71875 -6.894531 1.71875 -6.53125 C 1.71875 -6.21875 1.835938 -5.941406 2.078125 -5.703125 C 2.316406 -5.472656 2.695312 -5.273438 3.21875 -5.109375 C 3.894531 -4.890625 4.410156 -4.644531 4.765625 -4.375 C 5.128906 -4.113281 5.375 -3.820312 5.5 -3.5 C 5.632812 -3.1875 5.703125 -2.8125 5.703125 -2.375 C 5.703125 -1.582031 5.457031 -0.953125 4.96875 -0.484375 C 4.488281 -0.0234375 3.835938 0.203125 3.015625 0.203125 C 2.523438 0.203125 2.078125 0.09375 1.671875 -0.125 C 1.265625 -0.34375 0.945312 -0.65625 0.71875 -1.0625 C 0.488281 -1.46875 0.375 -1.941406 0.375 -2.484375 L 0.375 -2.546875 L 1.46875 -2.546875 C 1.476562 -1.972656 1.617188 -1.535156 1.890625 -1.234375 C 2.171875 -0.929688 2.546875 -0.78125 3.015625 -0.78125 C 3.515625 -0.78125 3.90625 -0.910156 4.1875 -1.171875 C 4.46875 -1.441406 4.609375 -1.828125 4.609375 -2.328125 C 4.609375 -2.722656 4.484375 -3.046875 4.234375 -3.296875 C 3.984375 -3.554688 3.601562 -3.78125 3.09375 -3.96875 C 2.5 -4.1875 2.035156 -4.382812 1.703125 -4.5625 C 1.367188 -4.738281 1.101562 -4.972656 0.90625 -5.265625 C 0.71875 -5.554688 0.625 -5.941406 0.625 -6.421875 C 0.625 -7.109375 0.851562 -7.675781 1.3125 -8.125 C 1.78125 -8.570312 2.367188 -8.796875 3.078125 -8.796875 C 3.503906 -8.796875 3.894531 -8.695312 4.25 -8.5 C 4.601562 -8.300781 4.882812 -8.023438 5.09375 -7.671875 C 5.300781 -7.316406 5.40625 -6.914062 5.40625 -6.46875 L 4.3125 -6.46875 C 4.28125 -6.875 4.144531 -7.195312 3.90625 -7.4375 C 3.675781 -7.6875 3.382812 -7.8125 3.03125 -7.8125 Z M 3.03125 -7.8125 "/></g></g></g><g fill="#000000" fill-opacity="1"><g transform="translate(105.712394, 22.067306)"><g><path d="M 0.21875 -7.59375 L 0.21875 -8.578125 L 2.03125 -8.578125 L 2.03125 -11.609375 L 3.125 -11.609375 L 3.125 -8.578125 L 5.171875 -8.578125 L 5.171875 -7.59375 L 3.125 -7.59375 L 3.125 0 L 2.03125 0 L 2.03125 -7.59375 Z M 0.21875 -7.59375 "/></g></g></g><g fill="#000000" fill-opacity="1"><g transform="translate(110.716968, 22.067306)"><g><path d="M 2.765625 -1.984375 L 2.765625 0 L 1.59375 0 L 1.59375 -1.984375 Z M 2.765625 -1.984375 "/></g></g></g><g fill="#000000" fill-opacity="1"><g transform="translate(114.748846, 22.067306)"><g><path d="M 8.609375 -1.5 C 8.253906 -0.96875 7.785156 -0.550781 7.203125 -0.25 C 6.617188 0.0507812 5.972656 0.203125 5.265625 0.203125 C 4.421875 0.203125 3.644531 0.00390625 2.9375 -0.390625 C 2.226562 -0.785156 1.671875 -1.328125 1.265625 -2.015625 C 0.859375 -2.703125 0.65625 -3.46875 0.65625 -4.3125 C 0.65625 -5.144531 0.863281 -5.90625 1.28125 -6.59375 C 1.695312 -7.28125 2.257812 -7.816406 2.96875 -8.203125 C 3.675781 -8.597656 4.441406 -8.796875 5.265625 -8.796875 C 5.984375 -8.796875 6.632812 -8.644531 7.21875 -8.34375 C 7.800781 -8.039062 8.265625 -7.617188 8.609375 -7.078125 L 8.640625 -7.078125 L 8.640625 -8.578125 L 9.734375 -8.578125 L 9.734375 0 L 8.640625 0 L 8.640625 -1.5 Z M 8.703125 -4.28125 C 8.703125 -4.90625 8.550781 -5.488281 8.25 -6.03125 C 7.945312 -6.582031 7.53125 -7.015625 7 -7.328125 C 6.476562 -7.648438 5.894531 -7.8125 5.25 -7.8125 C 4.601562 -7.8125 4.015625 -7.65625 3.484375 -7.34375 C 2.953125 -7.039062 2.53125 -6.617188 2.21875 -6.078125 C 1.90625 -5.535156 1.75 -4.929688 1.75 -4.265625 C 1.75 -3.617188 1.898438 -3.023438 2.203125 -2.484375 C 2.515625 -1.953125 2.9375 -1.535156 3.46875 -1.234375 C 4.007812 -0.929688 4.609375 -0.78125 5.265625 -0.78125 C 5.898438 -0.78125 6.476562 -0.9375 7 -1.25 C 7.519531 -1.5625 7.929688 -1.984375 8.234375 -2.515625 C 8.546875 -3.054688 8.703125 -3.644531 8.703125 -4.28125 Z M 8.703125 -4.28125 "/></g></g></g><g fill="#000000" fill-opacity="1"><g transform="translate(125.150273, 22.067306)"><g><path d="M 2.125 -11.609375 L 2.125 -9.625 L 1.015625 -9.625 L 1.015625 -11.609375 Z M 2.125 -8.578125 L 2.125 0 L 1.015625 0 L 1.015625 -8.578125 Z M 2.125 -8.578125 "/></g></g></g><g clip-path="url(#b732e89c1b)"><path fill="#53afe6" d="M 19.226562 8.519531 L 19.640625 3.753906 L 16.601562 13.9375 L 20.761719 13.9375 L 14.40625 23.710938 C 14.949219 23.820312 15.507812 23.882812 16.082031 23.882812 C 20.550781 23.882812 24.175781 20.300781 24.175781 15.886719 C 24.175781 12.574219 22.132812 9.730469 19.226562 8.519531 " fill-opacity="1" fill-rule="nonzero"/></g><g clip-path="url(#a12bc503e7)"><path fill="#fab60d" d="M 11.605469 28.023438 L 15.464844 16.273438 L 11.40625 16.273438 L 16.890625 7.933594 C 16.625 7.90625 16.355469 7.894531 16.082031 7.894531 C 11.613281 7.894531 7.992188 11.472656 7.992188 15.886719 C 7.992188 18.914062 9.695312 21.550781 12.207031 22.90625 L 11.605469 28.023438 " fill-opacity="1" fill-rule="nonzero"/></g></svg>